<svg xmlns="http://www.w3.org/2000/svg" xmlns:xlink="http://www.w3.org/1999/xlink" width="300" zoomAndPan="magnify" viewBox="0 0 224.87999 52.499999" height="70" preserveAspectRatio="xMidYMid meet" version="1.0"><defs><g/></defs><g fill="#ffffff" fill-opacity="1"><g transform="translate(1.613965, 41.831989)"><g><path d="M 9.859375 -18.578125 L 11.140625 -18.578125 C 12.210938 -18.578125 12.988281 -18.910156 13.46875 -19.578125 L 21.46875 -30.28125 C 21.84375 -30.78125 22.253906 -31.128906 22.703125 -31.328125 C 23.160156 -31.523438 23.71875 -31.625 24.375 -31.625 L 30.03125 -31.625 L 19.96875 -18.65625 C 19.3125 -17.8125 18.632812 -17.207031 17.9375 -16.84375 C 18.445312 -16.644531 18.90625 -16.378906 19.3125 -16.046875 C 19.71875 -15.722656 20.109375 -15.289062 20.484375 -14.75 L 30.828125 0 L 25 0 C 24.625 0 24.300781 -0.0234375 24.03125 -0.078125 C 23.757812 -0.140625 23.519531 -0.222656 23.3125 -0.328125 C 23.113281 -0.429688 22.941406 -0.554688 22.796875 -0.703125 C 22.648438 -0.859375 22.515625 -1.039062 22.390625 -1.25 L 14.25 -12.625 C 13.976562 -13.007812 13.648438 -13.285156 13.265625 -13.453125 C 12.890625 -13.617188 12.363281 -13.703125 11.6875 -13.703125 L 9.859375 -13.703125 L 9.859375 0 L 3.3125 0 L 3.3125 -31.625 L 9.859375 -31.625 Z M 9.859375 -18.578125 "/></g></g></g><g fill="#ffffff" fill-opacity="1"><g transform="translate(31.900075, 41.831989)"><g><path d="M 9.890625 0 L 3.3125 0 L 3.3125 -31.625 L 9.890625 -31.625 Z M 9.890625 0 "/></g></g></g><g fill="#ffffff" fill-opacity="1"><g transform="translate(45.103943, 41.831989)"><g><path d="M 30.40625 -31.625 L 30.40625 0 L 27.03125 0 C 26.519531 0 26.085938 -0.0820312 25.734375 -0.25 C 25.390625 -0.414062 25.050781 -0.703125 24.71875 -1.109375 L 8.953125 -21.171875 C 9.003906 -20.660156 9.039062 -20.15625 9.0625 -19.65625 C 9.082031 -19.164062 9.09375 -18.707031 9.09375 -18.28125 L 9.09375 0 L 3.3125 0 L 3.3125 -31.625 L 6.75 -31.625 C 7.03125 -31.625 7.269531 -31.613281 7.46875 -31.59375 C 7.664062 -31.570312 7.84375 -31.519531 8 -31.4375 C 8.15625 -31.363281 8.304688 -31.257812 8.453125 -31.125 C 8.597656 -31 8.757812 -30.828125 8.9375 -30.609375 L 24.8125 -10.46875 C 24.75 -11.019531 24.703125 -11.550781 24.671875 -12.0625 C 24.640625 -12.582031 24.625 -13.070312 24.625 -13.53125 L 24.625 -31.625 Z M 30.40625 -31.625 "/></g></g></g><g fill="#ffffff" fill-opacity="1"><g transform="translate(78.810865, 41.831989)"><g><path d="M 18.703125 -16.109375 L 29.5625 -16.109375 L 29.5625 -3.046875 C 27.945312 -1.867188 26.226562 -1.007812 24.40625 -0.46875 C 22.582031 0.0703125 20.648438 0.34375 18.609375 0.34375 C 16.015625 0.34375 13.660156 -0.0546875 11.546875 -0.859375 C 9.441406 -1.671875 7.640625 -2.796875 6.140625 -4.234375 C 4.648438 -5.671875 3.492188 -7.375 2.671875 -9.34375 C 1.859375 -11.320312 1.453125 -13.484375 1.453125 -15.828125 C 1.453125 -18.191406 1.84375 -20.363281 2.625 -22.34375 C 3.40625 -24.320312 4.515625 -26.019531 5.953125 -27.4375 C 7.390625 -28.863281 9.128906 -29.972656 11.171875 -30.765625 C 13.210938 -31.566406 15.5 -31.96875 18.03125 -31.96875 C 19.332031 -31.96875 20.550781 -31.863281 21.6875 -31.65625 C 22.820312 -31.445312 23.867188 -31.15625 24.828125 -30.78125 C 25.785156 -30.414062 26.660156 -29.976562 27.453125 -29.46875 C 28.253906 -28.957031 28.984375 -28.398438 29.640625 -27.796875 L 27.75 -24.875 C 27.457031 -24.40625 27.078125 -24.117188 26.609375 -24.015625 C 26.148438 -23.921875 25.644531 -24.039062 25.09375 -24.375 C 24.5625 -24.6875 24.046875 -24.96875 23.546875 -25.21875 C 23.046875 -25.476562 22.507812 -25.703125 21.9375 -25.890625 C 21.375 -26.078125 20.757812 -26.222656 20.09375 -26.328125 C 19.425781 -26.429688 18.65625 -26.484375 17.78125 -26.484375 C 16.3125 -26.484375 14.984375 -26.226562 13.796875 -25.71875 C 12.609375 -25.207031 11.59375 -24.488281 10.75 -23.5625 C 9.914062 -22.632812 9.273438 -21.515625 8.828125 -20.203125 C 8.378906 -18.898438 8.15625 -17.441406 8.15625 -15.828125 C 8.15625 -14.078125 8.398438 -12.515625 8.890625 -11.140625 C 9.390625 -9.773438 10.085938 -8.617188 10.984375 -7.671875 C 11.890625 -6.722656 12.96875 -6.003906 14.21875 -5.515625 C 15.476562 -5.023438 16.878906 -4.78125 18.421875 -4.78125 C 19.460938 -4.78125 20.394531 -4.882812 21.21875 -5.09375 C 22.039062 -5.300781 22.84375 -5.585938 23.625 -5.953125 L 23.625 -11.265625 L 20.046875 -11.265625 C 19.628906 -11.265625 19.300781 -11.375 19.0625 -11.59375 C 18.820312 -11.820312 18.703125 -12.113281 18.703125 -12.46875 Z M 18.703125 -16.109375 "/></g></g></g><g fill="#ffffff" fill-opacity="1"><g transform="translate(110.382502, 41.831989)"><g><path d="M 24.84375 -7.78125 C 25.207031 -7.78125 25.515625 -7.648438 25.765625 -7.390625 L 28.359375 -4.625 C 27.078125 -3 25.488281 -1.765625 23.59375 -0.921875 C 21.695312 -0.078125 19.441406 0.34375 16.828125 0.34375 C 14.460938 0.34375 12.332031 -0.0546875 10.4375 -0.859375 C 8.550781 -1.671875 6.945312 -2.796875 5.625 -4.234375 C 4.300781 -5.671875 3.28125 -7.375 2.5625 -9.34375 C 1.851562 -11.320312 1.5 -13.484375 1.5 -15.828125 C 1.5 -17.390625 1.671875 -18.878906 2.015625 -20.296875 C 2.359375 -21.710938 2.851562 -23.015625 3.5 -24.203125 C 4.15625 -25.398438 4.945312 -26.476562 5.875 -27.4375 C 6.800781 -28.394531 7.84375 -29.210938 9 -29.890625 C 10.164062 -30.566406 11.429688 -31.082031 12.796875 -31.4375 C 14.171875 -31.789062 15.640625 -31.96875 17.203125 -31.96875 C 18.359375 -31.96875 19.457031 -31.863281 20.5 -31.65625 C 21.539062 -31.457031 22.507812 -31.175781 23.40625 -30.8125 C 24.3125 -30.457031 25.144531 -30.019531 25.90625 -29.5 C 26.664062 -28.988281 27.351562 -28.425781 27.96875 -27.8125 L 25.765625 -24.8125 C 25.628906 -24.613281 25.457031 -24.441406 25.25 -24.296875 C 25.050781 -24.148438 24.78125 -24.078125 24.4375 -24.078125 C 24.082031 -24.078125 23.726562 -24.203125 23.375 -24.453125 C 23.019531 -24.703125 22.582031 -24.976562 22.0625 -25.28125 C 21.550781 -25.59375 20.90625 -25.867188 20.125 -26.109375 C 19.351562 -26.359375 18.367188 -26.484375 17.171875 -26.484375 C 15.847656 -26.484375 14.632812 -26.242188 13.53125 -25.765625 C 12.425781 -25.285156 11.476562 -24.585938 10.6875 -23.671875 C 9.894531 -22.765625 9.28125 -21.648438 8.84375 -20.328125 C 8.414062 -19.015625 8.203125 -17.515625 8.203125 -15.828125 C 8.203125 -14.128906 8.4375 -12.613281 8.90625 -11.28125 C 9.375 -9.945312 10.019531 -8.820312 10.84375 -7.90625 C 11.664062 -7 12.625 -6.304688 13.71875 -5.828125 C 14.8125 -5.359375 15.984375 -5.125 17.234375 -5.125 C 17.984375 -5.125 18.65625 -5.160156 19.25 -5.234375 C 19.851562 -5.304688 20.410156 -5.425781 20.921875 -5.59375 C 21.441406 -5.769531 21.929688 -5.992188 22.390625 -6.265625 C 22.847656 -6.546875 23.3125 -6.898438 23.78125 -7.328125 C 23.9375 -7.453125 24.101562 -7.554688 24.28125 -7.640625 C 24.457031 -7.734375 24.644531 -7.78125 24.84375 -7.78125 Z M 24.84375 -7.78125 "/></g></g></g><g fill="#ffffff" fill-opacity="1"><g transform="translate(139.099838, 41.831989)"><g><path d="M 22.078125 -5.3125 L 22.078125 0 L 3.3125 0 L 3.3125 -31.625 L 9.859375 -31.625 L 9.859375 -5.3125 Z M 22.078125 -5.3125 "/></g></g></g><g fill="#ffffff" fill-opacity="1"><g transform="translate(161.847106, 41.831989)"><g><path d="M 16.265625 -5.234375 C 17.328125 -5.234375 18.273438 -5.410156 19.109375 -5.765625 C 19.953125 -6.117188 20.664062 -6.625 21.25 -7.28125 C 21.832031 -7.9375 22.273438 -8.726562 22.578125 -9.65625 C 22.890625 -10.582031 23.046875 -11.628906 23.046875 -12.796875 L 23.046875 -31.625 L 29.578125 -31.625 L 29.578125 -12.796875 C 29.578125 -10.878906 29.265625 -9.113281 28.640625 -7.5 C 28.023438 -5.894531 27.144531 -4.507812 26 -3.34375 C 24.851562 -2.1875 23.457031 -1.28125 21.8125 -0.625 C 20.175781 0.0195312 18.328125 0.34375 16.265625 0.34375 C 14.203125 0.34375 12.34375 0.0195312 10.6875 -0.625 C 9.039062 -1.28125 7.644531 -2.1875 6.5 -3.34375 C 5.351562 -4.507812 4.46875 -5.894531 3.84375 -7.5 C 3.226562 -9.113281 2.921875 -10.878906 2.921875 -12.796875 L 2.921875 -31.625 L 9.453125 -31.625 L 9.453125 -12.796875 C 9.453125 -11.628906 9.601562 -10.582031 9.90625 -9.65625 C 10.21875 -8.726562 10.664062 -7.9375 11.25 -7.28125 C 11.832031 -6.625 12.539062 -6.117188 13.375 -5.765625 C 14.21875 -5.410156 15.179688 -5.234375 16.265625 -5.234375 Z M 16.265625 -5.234375 "/></g></g></g><g fill="#ffffff" fill-opacity="1"><g transform="translate(194.333852, 41.831989)"><g><path d="M 15.453125 -5.015625 C 16.492188 -5.015625 17.351562 -5.140625 18.03125 -5.390625 C 18.707031 -5.648438 19.25 -5.988281 19.65625 -6.40625 C 20.0625 -6.832031 20.34375 -7.316406 20.5 -7.859375 C 20.664062 -8.398438 20.75 -8.960938 20.75 -9.546875 C 20.75 -10.179688 20.65625 -10.753906 20.46875 -11.265625 C 20.28125 -11.773438 19.972656 -12.207031 19.546875 -12.5625 C 19.128906 -12.914062 18.582031 -13.1875 17.90625 -13.375 C 17.226562 -13.570312 16.394531 -13.671875 15.40625 -13.671875 L 9.859375 -13.671875 L 9.859375 -5.015625 Z M 9.859375 -26.65625 L 9.859375 -18.109375 L 14.140625 -18.109375 C 15.054688 -18.109375 15.867188 -18.1875 16.578125 -18.34375 C 17.296875 -18.5 17.894531 -18.742188 18.375 -19.078125 C 18.851562 -19.410156 19.21875 -19.847656 19.46875 -20.390625 C 19.726562 -20.929688 19.859375 -21.585938 19.859375 -22.359375 C 19.859375 -23.148438 19.75 -23.820312 19.53125 -24.375 C 19.320312 -24.925781 19 -25.367188 18.5625 -25.703125 C 18.132812 -26.035156 17.582031 -26.273438 16.90625 -26.421875 C 16.238281 -26.578125 15.445312 -26.65625 14.53125 -26.65625 Z M 14.53125 -31.625 C 16.65625 -31.625 18.46875 -31.421875 19.96875 -31.015625 C 21.476562 -30.617188 22.707031 -30.054688 23.65625 -29.328125 C 24.613281 -28.597656 25.304688 -27.707031 25.734375 -26.65625 C 26.171875 -25.613281 26.390625 -24.441406 26.390625 -23.140625 C 26.390625 -22.421875 26.285156 -21.722656 26.078125 -21.046875 C 25.867188 -20.378906 25.539062 -19.75 25.09375 -19.15625 C 24.65625 -18.570312 24.085938 -18.039062 23.390625 -17.5625 C 22.691406 -17.082031 21.863281 -16.675781 20.90625 -16.34375 C 23.050781 -15.832031 24.640625 -15.003906 25.671875 -13.859375 C 26.703125 -12.710938 27.21875 -11.222656 27.21875 -9.390625 C 27.21875 -8.054688 26.957031 -6.8125 26.4375 -5.65625 C 25.925781 -4.507812 25.175781 -3.515625 24.1875 -2.671875 C 23.207031 -1.835938 21.992188 -1.179688 20.546875 -0.703125 C 19.097656 -0.234375 17.4375 0 15.5625 0 L 3.3125 0 L 3.3125 -31.625 Z M 14.53125 -31.625 "/></g></g></g></svg>